<?xml version="1.0" encoding="UTF-8" standalone="no"?>
<svg
   xmlns:svg="http://www.w3.org/2000/svg"
   xmlns="http://www.w3.org/2000/svg"
   version="1.1"
   width="450.49387"
   height="382.60898"
   id="svg8562">
  <defs
     id="defs8564" />
  <g
     transform="translate(-124.75307,-341.05769)"
     id="layer1">
    <path
       d="m 261.03424,385.70906 0.029,0 0,139.80551 c 0,8.83291 -7.15614,15.99992 -16.00716,15.99992 -8.84377,0 -16.04699,-7.16701 -16.04699,-15.99992 l 0,-139.80551 -0.007,0 c 7.56898,0.0109 9.33991,8.8148 9.33991,17.39782 l -0.0362,0 c 0,-8.84377 7.18872,-17.39782 16.04336,-17.39782 l 6.68535,0 z m 24.71404,0 0,0 c 8.82566,0 16.02164,7.18149 16.02164,16.03251 l 0,123.773 c 0,8.83291 -7.19598,15.99992 -16.02164,15.99992 -8.85102,0 -16.03251,-7.16701 -16.03251,-15.99992 l 0,-139.80551 16.03251,0 z m -110.9713,155.80437 0,0 0,-139.79103 c 0,-8.83291 7.18511,-16.00354 16.0144,-16.00354 8.8655,0 16.02165,7.17063 16.02165,16.00354 l 0,139.79103 0.0398,0 c -7.59435,0 -9.33993,-8.77134 -9.33993,-17.34713 l 0.0217,0 c 0,8.81843 -7.16701,17.34713 -16.03251,17.34713 l -6.68896,0 m -24.72233,0 0,0 c -8.82929,0 -16.00716,-7.15976 -16.00716,-16.01802 l 0,-123.77301 c 0,-8.83291 7.17787,-16.00354 16.00716,-16.00354 8.87274,0 16.05786,7.17063 16.05786,16.00354 l 0,139.79103 -16.05786,0 z m 173.67766,-179.1415 c 0,-8.89085 7.19598,-16.0651 16.06511,-16.0651 8.88362,0 16.06148,7.17425 16.06148,16.0651 0,8.85102 -7.17787,16.05062 -16.06148,16.05062 -8.86913,0 -16.06511,-7.1996 -16.06511,-16.05062 m 16.04878,32.21925 c -6.17833,0 -11.52371,-3.47305 -14.1964,-8.87275 l -1.82887,0 0,139.77655 c 0,8.83291 7.17425,16.01802 16.02527,16.01802 8.82204,0 16.00716,-7.18511 16.00716,-16.01802 l 0,-139.77655 -1.80714,0 c -2.67631,5.3997 -8.03618,8.87275 -14.20002,8.87275"
       id="path1172"
       style="fill:#ee2a28;fill-opacity:1;fill-rule:nonzero;stroke:none" />
    <path
       d="m 381.51382,525.48017 c 0,-8.89809 7.1815,-16.07959 16.07596,-16.07959 8.86551,0 16.05424,7.1815 16.05424,16.07959 0,8.8474 -7.18873,16.03251 -16.05424,16.03251 -8.89447,0 -16.07596,-7.18511 -16.07596,-16.03251 m 152.55473,16.03325 -0.0362,0 0,-139.79103 c 0,-8.83291 7.15614,-16.0144 16.03613,-16.0144 8.8293,0 16.00354,7.18149 16.00354,16.0144 l 0,139.79103 0.029,0 c -7.56538,0 -9.33992,-8.79307 -9.33992,-17.36523 l 0.0217,0 c 0,8.82567 -7.18149,17.36523 -16.03613,17.36523 l -6.6781,0 z m -24.72127,0 0,0 c -8.84377,0 -16.02165,-7.167 -16.02165,-16.01802 l 0,-123.77301 c 0,-8.83291 7.17788,-16.0144 16.02165,-16.0144 8.83653,0 16.03251,7.18149 16.03251,16.0144 l 0,139.79103 -16.03251,0 z M 455.18475,354.94855 c -6.18557,0 -11.58528,-3.51651 -14.27245,-8.89086 l -1.82526,0 0,179.43591 c 0,8.83291 7.15616,16.02165 16.07597,16.02165 8.85464,0 16.02165,-7.18874 16.02165,-16.02165 l 0,-179.43591 -1.79628,0 c -2.68716,5.37435 -8.02531,8.89086 -14.20363,8.89086"
       id="path1184"
       style="fill:#00aae5;fill-opacity:1;fill-rule:nonzero;stroke:none" />
    <path
       d="m 556.29462,609.50442 0,36.43613 -5.72564,0 0,-36.43613 -8.53594,0 0,-5.38162 23.14882,0 0,5.38162 -8.88724,0 z m -30.49039,36.43763 -5.04116,-13.52638 -13.33809,0 -5.05205,13.52638 -6.06605,0 16.03614,-41.81775 3.6686,0 16.14841,41.81775 -6.3558,0 z m -19.99083,-52.63163 5.20413,0 0,6.35938 -5.20413,0 0,-6.35938 z m 8.59388,22.037 c -0.17746,-0.44912 -0.34767,-1.14812 -0.34767,-1.14812 0,0 -0.1702,0.699 -0.28971,1.09012 l -4.3386,11.741 9.32906,0 -4.35308,-11.683 z m 2.61474,-21.96825 5.21139,0 0,6.37025 -5.21139,0 0,-6.37025 z m -39.63147,16.12525 0,36.43613 -5.72564,0 0,-36.43613 -8.5287,0 0,-5.38162 23.13432,0 0,5.38162 -8.87998,0 z m -37.31225,-5.37987 5.72925,0 0,41.81787 -5.72925,0 0,-41.81787 z m -30.10328,42.50887 c -4.22632,0 -8.4128,-1.10462 -12.25164,-4.24075 l 3.26663,-4.41837 c 2.22724,2.00637 5.8379,3.0965 8.70254,3.0965 4.24081,0 7.15251,-1.88688 7.15251,-5.84163 0,-3.549 -3.26299,-5.49737 -6.9823,-7.39512 -5.9538,-3.024 -12.02348,-5.6785 -12.02348,-13.635 0,-6.17838 4.5776,-10.756 12.08142,-10.756 4.18286,0 8.02894,1.26025 11.28107,3.55275 l -3.08916,4.6935 c -2.58215,-1.89775 -4.75145,-2.62925 -8.24984,-2.62925 -3.26664,0 -6.00813,1.655 -6.00813,4.80575 0,4.527 4.01266,6.077 9.16248,8.64462 4.75143,2.35038 9.79623,5.38888 9.79623,12.37475 0,7.5075 -5.84515,11.74825 -12.83832,11.74825 m -32.85959,-0.69137 -16.89805,-19.54175 0,19.54175 -5.73289,0 0,-41.81775 13.52642,0 c 7.78266,0 12.9361,5.56262 12.9361,12.31312 0,6.7035 -5.66769,11.97275 -11.90397,11.97275 l 15.39874,17.53188 -7.32635,0 z m -10.13666,-36.43625 -6.76139,0 0,14.38475 6.64188,0 c 5.15342,0 8.13757,-3.20863 8.13757,-7.67763 0,-2.86462 -2.58215,-6.70712 -8.01806,-6.70712 m -55.19895,36.43625 0,-41.81788 23.37335,0 0,5.38163 -17.64771,0 0,13.35262 17.23486,0 0,5.378 -17.23486,0 0,12.324 18.72694,0 0,5.38163 -24.45258,0 z m -31.424,0 -3.5491,0 -14.72514,-41.81775 5.55543,0 10.59659,30.18537 c 0.17021,0.51063 0.34404,1.42688 0.34404,1.42688 0,0 0.17383,-0.91625 0.34406,-1.42688 l 10.65816,-30.18537 5.43591,0 -14.65995,41.81775 z m -40.7509,-41.8175 5.72564,0 0,41.81787 -5.72564,0 0,-41.81787 z m -24.21138,41.8175 -21.94646,-30.29775 c -0.21005,-0.35488 -0.73518,-1.148 -0.73518,-1.148 0,0 0.11588,0.91262 0.11588,1.37262 l 0,30.07313 -5.72564,0 0,-41.81775 4.86009,0 21.65312,29.73637 c 0.35129,0.449 0.74604,1.19863 0.74604,1.19863 0,0 -0.11225,-0.8655 -0.11225,-1.37613 l 0,-29.55887 5.72564,0 0,41.81775 -4.58124,0 z m -64.02646,0.69137 c -9.6224,0 -16.32224,-6.19287 -16.32224,-16.4925 l 0,-26.017 5.78359,0 0,26.017 c 0,8.058 5.04116,11.09638 10.53865,11.09638 5.43954,0 10.7161,-3.08913 10.7161,-11.09638 l 0,-26.017 5.6677,0 0,26.017 c 0,9.96288 -7.04388,16.4925 -16.3838,16.4925 m 395.40472,72.03325 c -10.75233,0 -21.50464,-8.76775 -21.50464,-21.903 0,-13.13887 9.88315,-21.91025 21.56259,-21.91025 6.85555,0 11.56353,2.21275 15.63051,5.75463 l -3.54548,4.29875 c -3.65775,-3.0095 -7.26478,-4.36038 -12.19731,-4.36038 -8.53956,0 -15.39874,6.44638 -15.39874,16.27163 0,8.60112 7.02577,16.15562 15.62328,16.15562 6.09865,0 10.9841,-3.426 12.4979,-8.53962 l -12.78763,0 0,-5.454 19.53092,0 c 0,11.50562 -9.18783,19.68662 -19.4114,19.68662 m -41.90905,-0.69175 -17.13708,-19.82425 0,19.82425 -5.81255,0 0,-42.42987 13.71835,0 c 7.89493,0 13.12804,5.63875 13.12804,12.50875 0,6.79037 -5.75461,12.13575 -12.09229,12.13575 l 15.63415,17.78537 -7.43862,0 z m -10.2779,-36.95775 -6.85918,0 0,14.584 6.73966,0 c 5.22587,0 8.24985,-3.25587 8.24985,-7.78637 0,-2.908 -2.61837,-6.79763 -8.13034,-6.79763 m -47.52319,37.6495 c -9.76727,0 -16.56488,-6.2725 -16.56488,-16.7315 l 0,-26.39 5.8705,0 0,26.39 c 0,8.1955 5.11722,11.27025 10.69438,11.27025 5.51558,0 10.86096,-3.13987 10.86096,-11.27025 l 0,-26.39 5.75461,0 0,26.39 c 0,10.115 -7.1489,16.7315 -16.61557,16.7315 m -48.61573,-0.69175 -12.72605,0 0,-42.42987 11.2195,0 c 7.19597,0 12.31319,4.4255 12.31319,11.04212 0,4.88175 -2.14757,8.03613 -4.8782,9.75638 3.31008,0.9995 7.14166,4.89625 7.14166,10.1185 0,5.30562 -3.71931,11.51287 -13.0701,11.51287 m -2.50248,-36.95775 -4.40378,0 0,13.41425 3.88591,0 c 6.33767,0 7.78629,-3.82437 7.78629,-7.3735 0,-3.7845 -2.49887,-6.04075 -7.26842,-6.04075 m 2.44453,18.87913 -6.84831,0 0,12.61375 6.26162,0 c 5.23311,0 7.67765,-2.56038 7.67765,-6.50788 0,-3.66137 -2.78496,-6.10587 -7.09096,-6.10587 m -40.41481,18.07862 0,-31.1995 c 0,-0.76775 0.11225,-1.63687 0.11225,-1.63687 0,0 -0.34043,0.69162 -0.57944,0.9995 l -13.3055,17.94825 -2.31778,0 -13.42501,-17.49913 c -0.2354,-0.28612 -0.59031,-0.9235 -0.59031,-0.9235 0,0 0.12313,0.80763 0.12313,1.56088 l 0,30.75037 -5.81257,0 0,-42.42987 4.94339,0 15.97819,20.755 15.51101,-20.755 5.17155,0 0,42.42987 -5.80894,0 z m -82.50243,0 0,-42.42975 23.71015,0 0,5.47213 -17.89397,0 0,13.53362 17.48475,0 0,5.46125 -17.48475,0 0,12.49788 18.99492,0 0,5.46487 -24.8111,0 z m -24.98424,0 -9.46667,-14.47525 c -0.69896,-1.043 -1.80353,-2.96237 -1.80353,-2.96237 0,0 -1.10095,1.86862 -1.92302,3.07462 l -9.41599,14.363 -6.7288,0 14.69618,-22.37375 -13.01579,-20.05612 7.1489,0 8.13757,12.55587 c 0.63378,0.99225 1.32912,2.2055 1.32912,2.2055 0,0 0.63376,-1.21325 1.3979,-2.31412 l 8.19552,-12.44725 6.6781,0 -12.95782,19.76275 14.76135,22.66712 -7.03302,0 z m -60.67254,0.69175 c -9.76363,0 -16.55763,-6.2725 -16.55763,-16.7315 l 0,-26.39 5.86688,0 0,26.39 c 0,8.1955 5.12084,11.27025 10.69075,11.27025 5.53008,0 10.87183,-3.13987 10.87183,-11.27025 l 0,-26.39 5.75824,0 0,26.39 c 0,10.115 -7.15614,16.7315 -16.63007,16.7315 m -54.87666,-0.69175 0,-42.42975 5.81255,0 0,36.96488 16.09408,0 0,5.46487 -21.90663,0 z m -5.18423,-142.5075 440.49386,0 0,-6.04075 -440.49386,0 0,6.04075 z"
       id="path1300"
       style="fill:#636466;fill-opacity:1;fill-rule:nonzero;stroke:none" />
  </g>
</svg>
